<svg width="256" height="256" viewBox="0 0 256 256" fill="none" xmlns="http://www.w3.org/2000/svg">
<g clip-path="url(#clip0)">
<path d="M3.2 42.6667C3.2 30.5939 7.2103 20.7818 13.9961 13.9961C20.7818 7.2103 30.5939 3.2 42.6667 3.2H213.333C225.406 3.2 235.218 7.2103 242.004 13.9961C248.79 20.7818 252.8 30.5939 252.8 42.6667V221.867C252.8 236.801 239.261 252.8 213.333 252.8H42.6667C30.5939 252.8 20.7818 248.79 13.9961 242.004C7.2103 235.218 3.2 225.406 3.2 213.333V42.6667Z" fill="#A3CBEF" stroke="black" stroke-width="6.4"/>
<path d="M208 208C208 232 160 240 128 240C96 240 48 232 48 208V88C72 104 112.785 104 128.785 104C147.452 104 184 104 208 88V208Z" fill="white" stroke="black" stroke-width="8" stroke-linejoin="round"/>
<path d="M128 64C101.333 64 48 68.8 48 88C72 104 112 104 128 104C144 104 184 104 208 88C208 68.8 154.667 64 128 64Z" fill="#523000" stroke="black" stroke-width="8"/>
<path d="M108 16C108 33.1429 112 67.4286 128 67.4286C124.667 67.4286 118 57.1429 118 16H108Z" fill="#524224"/>
<path d="M88 36.5714C88 53.7143 92 88 108 88C104.667 88 98 77.7143 98 36.5714H88Z" fill="#524224"/>
<path d="M148 16C148 33.1429 152 67.4286 168 67.4286C164.667 67.4286 158 57.1429 158 16H148Z" fill="#524224"/>
<path d="M128 36.5714C128 53.7143 132 88 148 88C144.667 88 138 77.7143 138 36.5714H128Z" fill="#524224"/>
</g>
<defs>
<clipPath id="clip0">
<rect width="256" height="256" fill="white"/>
</clipPath>
</defs>
</svg>
