<svg width="16" height="16" viewBox="0 0 16 16" fill="none" xmlns="http://www.w3.org/2000/svg">
<g clip-path="url(#clip0)">
<path d="M0.2 2.66667C0.2 1.91212 0.450644 1.29887 0.874755 0.874755C1.29887 0.450644 1.91212 0.2 2.66667 0.2H13.3333C14.0879 0.2 14.7011 0.450644 15.1252 0.874755C15.5494 1.29887 15.8 1.91212 15.8 2.66667V13.8667C15.8 14.8001 14.9538 15.8 13.3333 15.8H2.66667C1.91212 15.8 1.29887 15.5494 0.874755 15.1252C0.450644 14.7011 0.2 14.0879 0.2 13.3333V2.66667Z" fill="#A3CBEF" stroke="black" stroke-width="0.4"/>
<path d="M13 13C13 14.5 10 15 8 15C6 15 3 14.5 3 13V5.5C4.5 6.5 7.04906 6.5 8.04906 6.5C9.21572 6.5 11.5 6.5 13 5.5V13Z" fill="white" stroke="black" stroke-width="0.5" stroke-linejoin="round"/>
<path d="M8 4C6.33333 4 3 4.3 3 5.5C4.5 6.5 7 6.5 8 6.5C9 6.5 11.5 6.5 13 5.5C13 4.3 9.66667 4 8 4Z" fill="#523000" stroke="black" stroke-width="0.5"/>
<path d="M6.75 1C6.75 2.07143 7 4.21429 8 4.21429C7.79167 4.21429 7.375 3.57143 7.375 1H6.75Z" fill="#524224"/>
<path d="M5.5 2.28571C5.5 3.35714 5.75 5.5 6.75 5.5C6.54167 5.5 6.125 4.85714 6.125 2.28571H5.5Z" fill="#524224"/>
<path d="M9.25 1C9.25 2.07143 9.5 4.21429 10.5 4.21429C10.2917 4.21429 9.875 3.57143 9.875 1H9.25Z" fill="#524224"/>
<path d="M8 2.28571C8 3.35714 8.25 5.5 9.25 5.5C9.04167 5.5 8.625 4.85714 8.625 2.28571H8Z" fill="#524224"/>
</g>
<defs>
<clipPath id="clip0">
<rect width="16" height="16" fill="white"/>
</clipPath>
</defs>
</svg>
